<svg xmlns="http://www.w3.org/2000/svg" width="35" height="50" viewBox="0 0 35 50"><g><g><g><path d="M9.679 32.26a5.039 5.039 0 0 1-5.028-5.028v-16.04h10.056V27.22a5.039 5.039 0 0 1-5.028 5.038zM16.07 5.056H3.061a1.29 1.29 0 0 0-1.29 1.29v3.545a1.29 1.29 0 0 0 1.269 1.29V27.22a6.65 6.65 0 0 0 4.35 6.23.945.945 0 0 0-.085.398c0 .677.752 1.247 1.794 1.44a13.365 13.365 0 0 1-.774 4.254c-1.257 3.47-3.846 5.748-7.703 6.758a.806.806 0 0 0 .204 1.59l.204-.022c5.512-1.45 7.843-5.06 8.831-7.82.539-1.527.826-3.13.85-4.75 1.02-.203 1.75-.762 1.75-1.428a.978.978 0 0 0-.16-.527 6.65 6.65 0 0 0 4.017-6.102V11.16a1.29 1.29 0 0 0 1.042-1.268V6.347a1.29 1.29 0 0 0-1.289-1.29z"/></g><g><path d="M27.32 33.549a5.039 5.039 0 0 1-5.029-5.028V6.766h10.056V28.52a5.039 5.039 0 0 1-5.028 5.028zM33.83.642H20.82a1.29 1.29 0 0 0-1.29 1.29v3.544a1.29 1.29 0 0 0 1.15 1.279V28.52a6.65 6.65 0 0 0 4.351 6.23.946.946 0 0 0-.086.398c0 .677.752 1.247 1.794 1.44a13.365 13.365 0 0 1-.773 4.254c-1.257 3.46-3.846 5.737-7.703 6.758a.806.806 0 0 0 .204 1.59l.204-.022c5.511-1.45 7.843-5.06 8.831-7.82.539-1.527.825-3.13.849-4.75 1.02-.203 1.75-.762 1.75-1.428a.978.978 0 0 0-.16-.527 6.65 6.65 0 0 0 4.018-6.102V6.766a1.29 1.29 0 0 0 1.16-1.29V1.931a1.29 1.29 0 0 0-1.29-1.29z"/></g></g></g></svg>