<svg xmlns="http://www.w3.org/2000/svg" width="61" height="50" viewBox="0 0 61 50"><g><g><g><path fill="#1a1818" d="M30.586 23.927h-.01zm-.005 0c10.62.003 19.252 8.402 19.272 18.72 0 2.313-.426 3.774-1.299 4.453-1.4 1.096-4.17.426-7.68-.426-3.044-.74-6.504-1.583-10.278-1.583-3.774 0-7.234.843-10.278 1.583-3.51.852-6.28 1.522-7.68.426-.873-.69-1.3-2.14-1.3-4.454 0-10.317 8.632-18.716 19.243-18.72zm-9.928 24.229c2.973-.72 6.33-1.543 9.923-1.543 3.591 0 6.96.822 9.922 1.543 3.906.943 7.001 1.694 8.98.142 1.278-1.015 1.876-2.8 1.876-5.652 0-11.16-9.324-20.241-20.778-20.241-11.455 0-20.77 9.08-20.77 20.241 0 2.841.6 4.637 1.878 5.652.832.649 1.846.892 3.033.892 1.664 0 3.663-.487 5.936-1.034z"/><path fill="none" stroke="#000" stroke-miterlimit="20" stroke-width=".25" d="M30.586 23.927h-.01zm-.005 0c10.62.003 19.252 8.402 19.272 18.72 0 2.313-.426 3.774-1.299 4.453-1.4 1.096-4.17.426-7.68-.426-3.044-.74-6.504-1.583-10.278-1.583-3.774 0-7.234.843-10.278 1.583-3.51.852-6.28 1.522-7.68.426-.873-.69-1.3-2.14-1.3-4.454 0-10.317 8.632-18.716 19.243-18.72zm-9.928 24.229c2.973-.72 6.33-1.543 9.923-1.543 3.591 0 6.96.822 9.922 1.543 3.906.943 7.001 1.694 8.98.142 1.278-1.015 1.876-2.8 1.876-5.652 0-11.16-9.324-20.241-20.778-20.241-11.455 0-20.77 9.08-20.77 20.241 0 2.841.6 4.637 1.878 5.652.832.649 1.846.892 3.033.892 1.664 0 3.663-.487 5.936-1.034z"/></g><g><path fill="#1a1818" d="M27.156 9.094c0 3.814-2.232 6.93-4.971 6.93-2.74 0-4.972-3.116-4.972-6.93 0-3.815 2.232-6.93 4.972-6.93s4.971 3.115 4.971 6.93zm-.314 5.894c1.177-1.582 1.826-3.672 1.826-5.894s-.599-4.252-1.826-5.895C25.614 1.555 23.96.642 22.185.642c-1.776 0-3.48.984-4.657 2.567-1.177 1.583-1.826 3.673-1.826 5.895 0 2.222.598 4.25 1.826 5.894 1.227 1.644 2.881 2.557 4.657 2.557 1.775 0 3.48-.984 4.657-2.567z"/><path fill="none" stroke="#000" stroke-miterlimit="20" stroke-width=".25" d="M27.156 9.094c0 3.814-2.232 6.93-4.971 6.93-2.74 0-4.972-3.116-4.972-6.93 0-3.815 2.232-6.93 4.972-6.93s4.971 3.115 4.971 6.93zm-.314 5.894c1.177-1.582 1.826-3.672 1.826-5.894s-.599-4.252-1.826-5.895C25.614 1.555 23.96.642 22.185.642c-1.776 0-3.48.984-4.657 2.567-1.177 1.583-1.826 3.673-1.826 5.895 0 2.222.598 4.25 1.826 5.894 1.227 1.644 2.881 2.557 4.657 2.557 1.775 0 3.48-.984 4.657-2.567z"/></g><g><path fill="#1a1818" d="M12.465 18.123c0 3.815-2.232 6.93-4.972 6.93-2.739 0-4.971-3.115-4.971-6.93 0-3.814 2.232-6.93 4.971-6.93 2.73 0 4.972 3.116 4.972 6.93zm-.315 5.895c1.177-1.583 1.827-3.673 1.827-5.895 0-2.222-.599-4.25-1.827-5.894-1.227-1.644-2.87-2.557-4.657-2.557-1.785 0-3.49.974-4.667 2.557C1.65 13.81 1 15.9 1 18.123s.609 4.252 1.836 5.895c1.228 1.644 2.882 2.557 4.657 2.557 1.776 0 3.48-.974 4.657-2.557z"/><path fill="none" stroke="#000" stroke-miterlimit="20" stroke-width=".25" d="M12.465 18.123c0 3.815-2.232 6.93-4.972 6.93-2.739 0-4.971-3.115-4.971-6.93 0-3.814 2.232-6.93 4.971-6.93 2.73 0 4.972 3.116 4.972 6.93zm-.315 5.895c1.177-1.583 1.827-3.673 1.827-5.895 0-2.222-.599-4.25-1.827-5.894-1.227-1.644-2.87-2.557-4.657-2.557-1.785 0-3.49.974-4.667 2.557C1.65 13.81 1 15.9 1 18.123s.609 4.252 1.836 5.895c1.228 1.644 2.882 2.557 4.657 2.557 1.776 0 3.48-.974 4.657-2.557z"/></g><g><path fill="#1a1818" d="M43.948 9.094c0 3.814-2.232 6.93-4.972 6.93-2.739 0-4.971-3.116-4.971-6.93 0-3.815 2.232-6.93 4.971-6.93 2.74 0 4.972 3.115 4.972 6.93zm-.315 5.894c1.177-1.582 1.827-3.672 1.827-5.894s-.599-4.252-1.827-5.895C42.406 1.555 40.752.642 38.976.642c-1.775 0-3.48.984-4.657 2.567-1.177 1.583-1.826 3.673-1.826 5.895 0 2.222.599 4.25 1.826 5.894 1.228 1.644 2.882 2.557 4.657 2.557 1.776 0 3.48-.984 4.657-2.567z"/><path fill="none" stroke="#000" stroke-miterlimit="20" stroke-width=".25" d="M43.948 9.094c0 3.814-2.232 6.93-4.972 6.93-2.739 0-4.971-3.116-4.971-6.93 0-3.815 2.232-6.93 4.971-6.93 2.74 0 4.972 3.115 4.972 6.93zm-.315 5.894c1.177-1.582 1.827-3.672 1.827-5.894s-.599-4.252-1.827-5.895C42.406 1.555 40.752.642 38.976.642c-1.775 0-3.48.984-4.657 2.567-1.177 1.583-1.826 3.673-1.826 5.895 0 2.222.599 4.25 1.826 5.894 1.228 1.644 2.882 2.557 4.657 2.557 1.776 0 3.48-.984 4.657-2.567z"/></g><g><path fill="#1a1818" d="M53.668 11.194c2.74 0 4.971 3.104 4.971 6.92 0 3.814-2.232 6.929-4.971 6.929-2.74 0-4.972-3.115-4.972-6.93 0-3.815 2.232-6.93 4.972-6.93zm4.657 12.824c1.177-1.583 1.826-3.673 1.826-5.895 0-2.222-.599-4.25-1.826-5.894-1.228-1.644-2.882-2.557-4.657-2.557-1.776 0-3.48.974-4.657 2.557-1.177 1.582-1.826 3.672-1.826 5.894s.598 4.252 1.826 5.895c1.227 1.644 2.881 2.557 4.657 2.557 1.775 0 3.48-.974 4.657-2.557z"/><path fill="none" stroke="#000" stroke-miterlimit="20" stroke-width=".25" d="M53.668 11.194c2.74 0 4.971 3.104 4.971 6.92 0 3.814-2.232 6.929-4.971 6.929-2.74 0-4.972-3.115-4.972-6.93 0-3.815 2.232-6.93 4.972-6.93zm4.657 12.824c1.177-1.583 1.826-3.673 1.826-5.895 0-2.222-.599-4.25-1.826-5.894-1.228-1.644-2.882-2.557-4.657-2.557-1.776 0-3.48.974-4.657 2.557-1.177 1.582-1.826 3.672-1.826 5.894s.598 4.252 1.826 5.895c1.227 1.644 2.881 2.557 4.657 2.557 1.775 0 3.48-.974 4.657-2.557z"/></g></g></g></svg>