<svg xmlns="http://www.w3.org/2000/svg" width="53" height="49" viewBox="0 0 53 49"><g><g><g><path d="M43.264 5.131a.638.638 0 1 0 0 1.277.638.638 0 0 0 0-1.277z"/></g><g><path d="M51.08 9.035c-.3.346-1.267.656-2.124.94-1.496.483-3.183 1.039-3.877 2.288-.428.767-.592 1.478-.583 2.144H33.897l.055-.173c.199-.694.36-1.397.484-2.107.52.748 1.167 1.222 1.851 1.286.207.018.407.027.602.027 1.186 0 2.17-.347 2.955-1.03 1.842-1.615 2.116-4.689 2.226-7.443.054-1.34-.21-2.253-.593-2.882.629.082 1.195.228 1.505.474.31.246.42.51.638.867.474.775 1.067 1.732 2.262 1.979.565.118 1.432.137 2.344.155.912.018 2.764.064 3.138.328.373.739.456 2.29-.283 3.147zm-1.878 6.73c.478 0 .866.389.866.867V35.13a.866.866 0 0 1-.866.866h-5.6c.055-.556.11-1.103.182-1.614.265-1.888 1.122-3.137 2.034-4.45.912-1.314 1.724-2.509 2.198-4.351 1.022-4.04-.355-7.58-1.231-8.884a8.383 8.383 0 0 1-.547-.93zm-7.215 28.156l.019.694.693-.019c.018 0 1.432-.036 2.207.739.775.775.848 1.186.848 1.24-.09.356-.392.456-1.286.456H39.37a.465.465 0 0 1-.465-.465v-9.202h3.22c-.201 3.2-.147 6.375-.147 6.557zm-5.253-7.926l.693-.565a.073.073 0 0 1 .119.055v.51zm-3.721 4.89c-.794 1.267-1.688 1.951-3.138 2.27h-.118a.684.684 0 0 0-.329.082c-.507.077-1.019.123-1.532.137a.684.684 0 0 0 .046 1.368 12.99 12.99 0 0 0 2.097-.219h3.977c.274.037 1.286.283 1.286 1.688a.383.383 0 0 1-.119.31c-.757.748-4.25.675-8.673.583-1.423-.027-3.038-.063-4.789-.073a51.04 51.04 0 0 1-8.591-1.267c-4.853-1.168-9.048-2.527-11.228-7.388-.684-1.523-.711-2.837-.082-3.703a2.116 2.116 0 0 1 1.906-.866c.265.027.748.155.958.638.803 1.87-.748 3.475-.821 3.539l-.365.365.246.447c.119.21 2.91 5.116 11.31 5.38l1.158.037-.52-1.021c-.009-.01-.601-1.204-.592-3.028.018-2.445 1.076-4.807 3.146-7.032 2.07-2.226 4.46-4.761 6.503-6.932l3.712-3.95V35.13c0 1.234 1 2.235 2.235 2.235h3.548c-.146.893-.474 2.307-1.231 3.52zm11.738-25.12c.23.597.53 1.164.894 1.688.55.823 1.328 2.678 1.363 5.004a.684.684 0 0 0-.852-.535c-2.408.447-5.92.675-8.975-.793-1.523-.73-2.335-1.615-2.572-1.88.226-.35.424-.72.593-1.103 1.532.757 4.706 1.797 8.92.329a.685.685 0 1 0-.447-1.295c-3.895 1.359-6.804.264-7.88-.274a1.34 1.34 0 0 0-1.834.666c-.793 1.86-2.982 3.849-4.14 4.815v-1.605a77.663 77.663 0 0 0 1.86-2.061c.675-.784 1.259-1.77 1.733-2.955zm1.934 9.477c-.41 1.615-1.177 2.727-1.998 3.913-.957 1.386-1.952 2.827-2.262 5.035a32.134 32.134 0 0 0-.2 1.805h-.155V32.21a.684.684 0 0 0-1.369 0v3.785h-1.787v-.51a1.441 1.441 0 0 0-2.344-1.113l-1.97 1.605-.019.018h-3.894a.866.866 0 0 1-.867-.866v-6.904c.995 1.65 2.974 3.757 6.887 4.843l.182.027a.684.684 0 0 0 .182-1.34c-2.873-.794-4.943-2.253-6.147-4.333-.894-1.55-.958-2.891-.958-2.919a.684.684 0 0 0-.136-.392l.063-.045a25.329 25.329 0 0 0 1.97-1.67 9.185 9.185 0 0 0 1.715 2.8c2.764 3.11 7.023 3.94 10.106 4.096h.036a.684.684 0 0 0 .037-1.368c-4.004-.192-7.15-1.432-9.093-3.576-1.177-1.295-1.587-2.572-1.715-3.028.283-.3.565-.62.83-.948.447.465 1.322 1.258 2.709 1.942 1.386.685 3.374 1.314 6.165 1.314a20.44 20.44 0 0 0 3.749-.365.684.684 0 0 0 .607-.561 10.68 10.68 0 0 1-.324 2.54zm.324-2.54v-.245c.014.08.015.163 0 .245zm-17.18-6.07c0-.478.389-.866.867-.866h1.24a8.592 8.592 0 0 1-1.276 2.061l-.83.93zM35.102 5.77c.557-1.46 1.624-2.645 3.165-3.54.165-.084.345-.137.53-.154h.245c.26.004.515.076.74.21.647.392.966 1.304.911 2.644-.1 2.655-.392 5.263-1.75 6.458-.63.547-1.46.766-2.536.666-.447-.046-1.24-.93-1.587-2.5A6.676 6.676 0 0 1 35.1 5.77zm17.44-.566c-.475-.857-1.935-.948-4.288-.994-.811-.018-1.65-.037-2.097-.128-.62-.127-.985-.73-1.378-1.359-.273-.447-.556-.903-.948-1.213C42.553.47 39.735.625 38.96.69a2.882 2.882 0 0 0-1.378.346c-3.648 2.116-4.57 5.509-4.195 8.19a.684.684 0 0 0-.01.1 19.254 19.254 0 0 1-.902 5.072h-1.788a2.235 2.235 0 0 0-2.226 2.234v3.612c-1.286 1.386-2.927 3.128-4.706 5.016-2.043 2.171-4.369 4.634-6.512 6.941-2.9 3.129-3.511 6.093-3.511 8.036a9.212 9.212 0 0 0 .346 2.526c-3.384-.292-5.618-1.423-6.932-2.371a9.02 9.02 0 0 1-1.942-1.88c.602-.793 1.614-2.553.739-4.605-.347-.812-1.104-1.35-2.062-1.46-1.195-.136-2.435.42-3.165 1.414-1.258 1.724-.583 3.913-.063 5.062 1.13 2.527 2.863 4.415 5.29 5.774 2.143 1.194 4.569 1.833 6.867 2.38a51.339 51.339 0 0 0 8.866 1.304h.027c1.751.019 3.357.046 4.78.073 1.422.028 2.754.055 3.848.055 3.265 0 4.962-.2 5.81-1.03a1.76 1.76 0 0 0 .53-1.287c0-2.216-1.66-2.964-2.546-3.046h-1.23a7.06 7.06 0 0 0 1.276-1.541c.958-1.523 1.313-3.247 1.45-4.241h1.916v9.193c0 1.013.82 1.833 1.833 1.833h5.09c.665 0 2.243 0 2.617-1.504.118-.475.009-1.305-1.213-2.527-.757-.757-1.824-1.012-2.518-1.094-.009-1.113.01-3.52.155-5.901h5.692c1.234 0 2.234-1 2.234-2.235V16.632c0-1.234-1-2.234-2.234-2.234h-3.33c-.008-.465.12-.949.411-1.478.438-.784 1.852-1.24 3.101-1.65 1.25-.411 2.19-.712 2.736-1.341 1.213-1.396 1.031-3.649.43-4.725z"/></g></g></g></svg>