<svg xmlns="http://www.w3.org/2000/svg" width="35" height="35" viewBox="0 0 35 35"><g><g><g><path fill="#a79075" d="M31.353 24.307c-.074 1.69-.358 2.604-.595 3.212a5.741 5.741 0 0 1-3.286 3.286c-.609.237-1.528.52-3.212.595-1.825.081-2.373.101-6.99.101-4.619 0-5.173-.02-6.992-.1-1.69-.075-2.603-.36-3.212-.596a5.327 5.327 0 0 1-1.988-1.291 5.382 5.382 0 0 1-1.291-1.988c-.237-.609-.52-1.528-.595-3.212-.081-1.825-.101-2.373-.101-6.991 0-4.618.02-5.173.101-6.991.074-1.69.358-2.604.595-3.212a5.261 5.261 0 0 1 1.298-1.988A5.372 5.372 0 0 1 7.073 3.84c.608-.237 1.528-.521 3.212-.595 1.825-.082 2.373-.102 6.99-.102 4.626 0 5.173.02 6.992.102 1.69.074 2.603.358 3.212.595.75.277 1.433.716 1.988 1.29a5.38 5.38 0 0 1 1.291 1.989c.237.608.52 1.528.595 3.212.081 1.825.102 2.373.102 6.99 0 4.619-.02 5.16-.102 6.985zm3.117-14.131c-.081-1.84-.378-3.103-.804-4.199a8.447 8.447 0 0 0-2.002-3.07A8.518 8.518 0 0 0 28.601.913C27.5.487 26.241.189 24.402.108 22.55.02 21.962 0 17.262 0c-4.699 0-5.287.02-7.133.101C8.29.182 7.026.481 5.93.906a8.445 8.445 0 0 0-3.07 2.001A8.522 8.522 0 0 0 .867 5.97C.44 7.073.142 8.33.06 10.17c-.088 1.852-.108 2.44-.108 7.14 0 4.699.02 5.287.102 7.133.08 1.839.378 3.103.804 4.199a8.535 8.535 0 0 0 2.002 3.07 8.518 8.518 0 0 0 3.062 1.994c1.103.426 2.36.723 4.2.804 1.845.082 2.434.102 7.133.102s5.287-.02 7.133-.102c1.839-.08 3.103-.378 4.199-.804a8.853 8.853 0 0 0 5.064-5.064c.426-1.103.724-2.36.805-4.2.08-1.845.101-2.433.101-7.133 0-4.699-.007-5.287-.088-7.133z"/></g><g><path fill="#a79075" d="M17.262 23.077a5.768 5.768 0 0 1 0-11.535 5.768 5.768 0 0 1 0 11.535zm0-14.659a8.894 8.894 0 0 0-8.89 8.891 8.894 8.894 0 0 0 8.89 8.892 8.893 8.893 0 0 0 8.892-8.892 8.893 8.893 0 0 0-8.892-8.891z"/></g><g><path fill="#a79075" d="M28.581 8.066a2.076 2.076 0 1 1-4.152 0 2.076 2.076 0 0 1 4.152 0z"/></g></g></g></svg>