<svg xmlns="http://www.w3.org/2000/svg" width="36" height="36" viewBox="0 0 36 36"><g><g clip-path="url(#clip-381f8057-f40c-4a82-be59-1b02fedf367f)"><path fill="#a79075" d="M30.887 30.87h-5.338v-8.36c0-1.994-.04-4.558-2.774-4.558-2.733 0-3.207 2.17-3.207 4.413v8.506H14.23V13.683h5.12v2.347h.073c.715-1.35 2.46-2.773 5.057-2.773 5.402 0 6.407 3.561 6.407 8.192zM8.208 11.336a3.095 3.095 0 1 1 3.095-3.095zM5.54 30.871V13.683h5.346V30.87zM33.435 0H2.557A2.58 2.58 0 0 0-.008 2.597v30.822a2.58 2.58 0 0 0 2.565 2.597h30.878a2.589 2.589 0 0 0 2.573-2.597V2.597A2.589 2.589 0 0 0 33.435 0z"/></g></g></svg>