<svg xmlns="http://www.w3.org/2000/svg" width="49" height="35" viewBox="0 0 49 35"><g><g><path fill="#a79075" d="M19.502 9.983l12.815 7.29-12.815 7.29zm28.507-4.589a6.161 6.161 0 0 0-4.335-4.363C39.85.001 24.517.001 24.517.001S9.184 0 5.36 1.03a6.162 6.162 0 0 0-4.335 4.363C0 9.244 0 17.274 0 17.274s0 8.03 1.025 11.878c.564 2.123 2.225 3.726 4.335 4.293 3.824 1.032 19.157 1.032 19.157 1.032s15.333 0 19.157-1.032c2.11-.567 3.77-2.17 4.335-4.293 1.024-3.849 1.024-11.879 1.024-11.879s0-8.03-1.024-11.879z"/></g></g></svg>