<svg xmlns="http://www.w3.org/2000/svg" width="130" height="130" viewBox="0 0 130 130"><defs><clipPath id="2o35a"><path d="M.35 129.824V.175h129.638v129.65z"/></clipPath></defs><g><g><g/><g clip-path="url(#2o35a)"><path fill="#fff" d="M4.167 40.035H126.17v85.962H4.167zm0-25.655h22.546v8.479c0 1.054.855 1.908 1.909 1.908h8.124a1.908 1.908 0 0 0 1.909-1.908v-8.48h20.53v8.48c0 1.054.854 1.908 1.908 1.908h8.152a1.908 1.908 0 0 0 1.908-1.908v-8.48h20.53v8.48c0 1.054.854 1.908 1.908 1.908h8.152a1.908 1.908 0 0 0 1.908-1.908v-8.48h22.547v21.839H4.167zM30.53 3.992h4.335V20.95H30.53zm32.471 0h4.308V20.95H63zm32.498 0h4.308V20.95H95.5zm8.125 6.57V2.085a1.908 1.908 0 0 0-1.908-1.909H93.59a1.908 1.908 0 0 0-1.908 1.909v8.479h-20.53v-8.48A1.908 1.908 0 0 0 69.245.176h-8.152a1.908 1.908 0 0 0-1.909 1.909v8.479H38.682v-8.48A1.908 1.908 0 0 0 36.774.176h-8.152a1.908 1.908 0 0 0-1.909 1.909v8.479H2.259A1.908 1.908 0 0 0 .35 12.47v115.434c0 1.054.854 1.909 1.908 1.909H128.08a1.908 1.908 0 0 0 1.909-1.909V12.471a1.908 1.908 0 0 0-1.909-1.908z"/></g><g clip-path="url(#2o35a)"><path fill="#fff" d="M25.541 62.39a4.935 4.935 0 1 1 4.935-4.961 4.935 4.935 0 0 1-4.935 4.935zm0-13.74a8.752 8.752 0 1 0 8.752 8.779 8.752 8.752 0 0 0-8.752-8.752z"/></g><g clip-path="url(#2o35a)"><path fill="#fff" d="M51.987 62.39a4.935 4.935 0 1 1 4.935-4.961 4.935 4.935 0 0 1-4.935 4.935zm-.027-13.74a8.752 8.752 0 1 0 8.778 8.779 8.752 8.752 0 0 0-8.751-8.752z"/></g><g clip-path="url(#2o35a)"><path fill="#fff" d="M78.405 62.39a4.935 4.935 0 1 1 4.935-4.961 4.935 4.935 0 0 1-4.935 4.935zm-.027-13.74a8.752 8.752 0 1 0 8.779 8.779 8.752 8.752 0 0 0-8.752-8.752z"/></g><g clip-path="url(#2o35a)"><path fill="#fff" d="M104.823 62.39a4.935 4.935 0 1 1 4.935-4.961 4.935 4.935 0 0 1-4.935 4.935zm-.027-13.74a8.751 8.751 0 0 0 .018 17.503 8.751 8.751 0 0 0 8.761-8.724 8.779 8.779 0 0 0-8.752-8.752z"/></g><g clip-path="url(#2o35a)"><path fill="#fff" d="M25.541 87.991a4.935 4.935 0 1 1 4.935-4.934 4.962 4.962 0 0 1-4.935 4.907zm0-13.713a8.752 8.752 0 1 0 8.752 8.751z"/></g><g clip-path="url(#2o35a)"><path fill="#fff" d="M51.96 87.991a4.935 4.935 0 1 1 4.934-4.934 4.962 4.962 0 0 1-4.934 4.907zm0-13.713a8.752 8.752 0 1 0 8.751 8.751z"/></g><g clip-path="url(#2o35a)"><path fill="#fff" d="M78.378 87.991a4.935 4.935 0 1 1 4.935-4.934 4.962 4.962 0 0 1-4.935 4.907zm0-13.713a8.752 8.752 0 1 0 8.752 8.751z"/></g><g clip-path="url(#2o35a)"><path fill="#fff" d="M104.796 87.991a4.935 4.935 0 1 1 4.935-4.934 4.962 4.962 0 0 1-4.935 4.907zm0-13.713a8.752 8.752 0 1 0 8.752 8.751z"/></g><g clip-path="url(#2o35a)"><path fill="#fff" d="M25.541 113.592a4.935 4.935 0 1 1 4.935-4.935zm0-13.714a8.752 8.752 0 1 0 8.752 8.752z"/></g><g clip-path="url(#2o35a)"><path fill="#fff" d="M51.96 113.592a4.935 4.935 0 1 1 4.934-4.935zm0-13.714a8.752 8.752 0 1 0 8.751 8.752z"/></g><g clip-path="url(#2o35a)"><path fill="#fff" d="M78.378 113.592a4.935 4.935 0 1 1 4.935-4.935zm0-13.714a8.752 8.752 0 1 0 8.752 8.752z"/></g><g clip-path="url(#2o35a)"><path fill="#fff" d="M104.796 113.592a4.935 4.935 0 1 1 4.935-4.935zm0-13.714a8.752 8.752 0 1 0 8.752 8.752z"/></g></g></g></svg>