<svg xmlns="http://www.w3.org/2000/svg" width="123" height="109" viewBox="0 0 123 109"><defs><clipPath id="sc3ia"><path d="M-.013 108.5V0h122.185v108.5z"/></clipPath></defs><g><g><g/><g clip-path="url(#sc3ia)"><path fill="none" stroke="#fff" stroke-linecap="round" stroke-linejoin="round" stroke-miterlimit="20" stroke-width="2.5" d="M116.752 17.982v0C107.956 2.304 88.17-3.357 72.412 5.296l-11.333 6.158v0L49.748 5.296C35.465-2.482 17.638 1.394 7.876 14.4c-9.763 13.007-8.507 31.207 2.95 42.75l50.253 50.13v0l50.254-50.13c10.37-10.372 12.583-26.371 5.42-39.169z"/></g><g clip-path="url(#sc3ia)"><path fill="none" stroke="#fff" stroke-linecap="round" stroke-linejoin="round" stroke-miterlimit="20" stroke-width="2.5" d="M7.008 52.593v0h29.191v0l10.47-31.778v0l13.179 62.324v0l15.766-44.957v0l5.296 16.012v0h33.01v0"/></g></g></g></svg>