<svg xmlns="http://www.w3.org/2000/svg" width="40" height="40" viewBox="0 0 40 40"><defs><clipPath id="87s6a"><path d="M0 40V0h40v40z"/></clipPath></defs><g><g><g/><g clip-path="url(#87s6a)"><path fill="#a79075" d="M34.319 34.3h-5.931v-9.289c0-2.215-.045-5.065-3.082-5.065s-3.564 2.412-3.564 4.904v9.45H15.81V15.204h5.69v2.608h.08c.795-1.5 2.733-3.081 5.619-3.081 6.002 0 7.119 3.957 7.119 9.102zM9.12 12.596a3.439 3.439 0 1 1 3.44-3.44zM6.155 34.3V15.203h5.94v19.098zM37.15 0H2.84A2.867 2.867 0 0 0-.008 2.885v34.247a2.867 2.867 0 0 0 2.85 2.886h34.31a2.876 2.876 0 0 0 2.858-2.886V2.885A2.876 2.876 0 0 0 37.15 0z"/></g></g></g></svg>