<svg xmlns="http://www.w3.org/2000/svg" width="31" height="31" viewBox="0 0 31 31"><g><g clip-path="url(#clip-3bed7feb-613f-4882-99de-7ab9d4bdb2c4)"><path fill="#b0b885" d="M26.206 26.37h-4.56v-7.142c0-1.703-.034-3.894-2.369-3.894-2.334 0-2.74 1.854-2.74 3.77v7.265h-4.56V11.688h4.375v2.005h.062c.611-1.154 2.101-2.37 4.32-2.37 4.614 0 5.472 3.043 5.472 6.998zM6.834 9.682a2.644 2.644 0 1 1 2.644-2.644zm-2.28 16.686V11.688h4.567v14.681zM28.385 0H2.006a2.204 2.204 0 0 0-2.19 2.218v26.328a2.204 2.204 0 0 0 2.19 2.218h26.376a2.211 2.211 0 0 0 2.198-2.218V2.218z"/></g></g></svg>