<svg xmlns="http://www.w3.org/2000/svg" width="44" height="44" viewBox="0 0 44 44"><g><g><g><path fill="#a79075" d="M39.443 30.533c-.094 2.123-.45 3.27-.748 4.034a7.212 7.212 0 0 1-4.128 4.128c-.764.297-1.919.654-4.034.747-2.293.103-2.98.128-8.782.128-5.8 0-6.497-.025-8.782-.128-2.123-.093-3.27-.45-4.034-.747-.943-.348-1.8-.9-2.497-1.622a6.76 6.76 0 0 1-1.622-2.497c-.298-.764-.654-1.92-.748-4.034-.102-2.293-.127-2.982-.127-8.782 0-5.801.025-6.498.127-8.782.094-2.124.45-3.27.748-4.035.348-.942.9-1.8 1.63-2.497a6.748 6.748 0 0 1 2.497-1.622c.765-.297 1.92-.654 4.035-.747 2.293-.102 2.98-.128 8.781-.128 5.81 0 6.498.026 8.783.128 2.123.093 3.27.45 4.034.747.943.348 1.8.9 2.497 1.622a6.757 6.757 0 0 1 1.622 2.497c.297.765.654 1.92.748 4.035.102 2.293.127 2.98.127 8.782 0 5.8-.025 6.48-.127 8.773zm3.915-17.75c-.102-2.31-.476-3.899-1.01-5.275a10.61 10.61 0 0 0-2.515-3.856 10.7 10.7 0 0 0-3.847-2.505C34.602.61 33.022.237 30.712.136 28.384.026 27.645 0 21.742 0c-5.902 0-6.641.026-8.96.127-2.31.102-3.898.476-5.274 1.011a10.608 10.608 0 0 0-3.856 2.514A10.705 10.705 0 0 0 1.147 7.5C.61 8.884.237 10.464.136 12.774.026 15.1 0 15.84 0 21.743c0 5.902.026 6.641.127 8.96.102 2.31.476 3.898 1.011 5.274a10.722 10.722 0 0 0 2.514 3.856A10.7 10.7 0 0 0 7.5 42.34c1.384.535 2.964.908 5.274 1.01 2.318.102 3.058.128 8.96.128 5.903 0 6.642-.026 8.96-.128 2.31-.102 3.899-.475 5.275-1.01a11.12 11.12 0 0 0 6.361-6.362c.535-1.384.91-2.964 1.01-5.274.103-2.319.128-3.058.128-8.96 0-5.903-.008-6.642-.11-8.96z"/></g><g><path fill="#a79075" d="M21.743 28.987a7.246 7.246 0 0 1 0-14.49 7.246 7.246 0 0 1 0 14.49zm0-18.413c-6.166 0-11.169 5.002-11.169 11.169 0 6.166 5.003 11.168 11.169 11.168S32.91 27.91 32.91 21.743c0-6.167-5.002-11.169-11.168-11.169z"/></g><g><path fill="#a79075" d="M35.96 10.132a2.608 2.608 0 1 1-5.215 0 2.608 2.608 0 0 1 5.215 0z"/></g></g></g></svg>