<svg xmlns="http://www.w3.org/2000/svg" width="23" height="23" viewBox="0 0 23 23"><g><g><g><path d="M20.234 15.697c-.048 1.091-.232 1.68-.385 2.074a3.708 3.708 0 0 1-2.122 2.122c-.393.152-.986.336-2.074.384-1.179.052-1.532.065-4.514.065-2.983 0-3.34-.013-4.515-.065-1.092-.048-1.681-.231-2.074-.384a3.44 3.44 0 0 1-1.284-.834 3.476 3.476 0 0 1-.834-1.284c-.153-.393-.336-.987-.384-2.074-.052-1.179-.065-1.533-.065-4.515 0-2.982.013-3.34.065-4.514.048-1.092.231-1.681.384-2.074.18-.485.463-.926.839-1.284a3.47 3.47 0 0 1 1.283-.834c.393-.153.987-.336 2.074-.384 1.18-.053 1.533-.066 4.515-.066 2.987 0 3.34.013 4.515.066 1.091.048 1.68.231 2.074.384.484.179.925.463 1.283.834.371.362.655.799.834 1.284.153.393.337.986.385 2.074.052 1.179.065 1.532.065 4.514s-.013 3.332-.065 4.51zm2.012-9.126c-.052-1.187-.244-2.004-.52-2.711a5.455 5.455 0 0 0-1.292-1.983A5.5 5.5 0 0 0 18.456.59c-.711-.275-1.523-.467-2.71-.52C14.548.014 14.168 0 11.133 0 8.1 0 7.72.013 6.528.065 5.34.118 4.524.31 3.816.585a5.453 5.453 0 0 0-1.982 1.292A5.503 5.503 0 0 0 .546 3.855C.271 4.567.079 5.38.026 6.567c-.056 1.196-.07 1.576-.07 4.61 0 3.035.014 3.415.066 4.607.052 1.188.245 2.004.52 2.712a5.512 5.512 0 0 0 1.292 1.982 5.5 5.5 0 0 0 1.978 1.288c.712.275 1.524.467 2.712.52 1.191.052 1.571.065 4.606.065s3.414-.013 4.606-.066c1.188-.052 2.004-.244 2.712-.52a5.717 5.717 0 0 0 3.27-3.27c.275-.711.467-1.523.52-2.711.052-1.192.065-1.572.065-4.606 0-3.035-.004-3.415-.057-4.607z"/></g><g><path d="M11.134 14.902a3.725 3.725 0 1 1 .001-7.45 3.725 3.725 0 0 1 0 7.45zm0-9.466a5.743 5.743 0 0 0-5.741 5.742 5.743 5.743 0 0 0 5.741 5.741 5.743 5.743 0 0 0 5.742-5.741 5.743 5.743 0 0 0-5.742-5.742z"/></g><g><path d="M18.444 5.209a1.34 1.34 0 1 1-2.682 0 1.34 1.34 0 0 1 2.682 0z"/></g></g></g></svg>