<svg xmlns="http://www.w3.org/2000/svg" width="21" height="21" viewBox="0 0 21 21"><defs><clipPath id="5lbva"><path d="M0 21V0h21v21z"/></clipPath></defs><g><g><g><g/><g clip-path="url(#5lbva)"><path d="M18.62 18.287h-3.19v-4.994c0-1.19-.023-2.723-1.656-2.723-1.632 0-1.916 1.297-1.916 2.637v5.08H8.67V8.021h3.059v1.402h.043c.427-.807 1.47-1.657 3.02-1.657 3.227 0 3.827 2.127 3.827 4.893zM5.072 6.618A1.849 1.849 0 1 1 6.922 4.77zM3.48 18.287V8.021h3.193v10.266zM20.142-.153H1.697C.847-.146.16.548.166 1.4v18.41a1.541 1.541 0 0 0 1.531 1.551h18.445a1.546 1.546 0 0 0 1.536-1.55V1.398z"/></g></g></g></g></svg>