<svg xmlns="http://www.w3.org/2000/svg" width="27" height="27" viewBox="0 0 27 27"><g><g clip-path="url(#clip-5de826ef-8701-4ee3-bf47-b145ed52df3d)"><path fill="#888887" d="M23.034 16.78a9.192 9.192 0 1 1 0-12.997zm-14.91 3.44L2.77 25.573a.54.54 0 0 1-.764 0l-.763-.763a.54.54 0 0 1 0-.764l5.352-5.353a.554.554 0 0 1 .764 0l.764.764a.54.54 0 0 1 0 .763zM23.797 3.013a10.266 10.266 0 0 0-14.89 14.126l-.783.784a1.622 1.622 0 0 0-2.291 0l-5.36 5.36a1.622 1.622 0 0 0 0 2.29l.764.764a1.622 1.622 0 0 0 2.291 0l5.353-5.353a1.622 1.622 0 0 0 0-2.291l.79-.784a10.266 10.266 0 0 0 14.126-14.89z"/></g></g></svg>