<svg xmlns="http://www.w3.org/2000/svg" width="127" height="105" viewBox="0 0 127 105"><defs><clipPath id="er23a"><path d="M-.095 104.902V.628h127.028v104.274z"/></clipPath></defs><g><g><g><g/><g clip-path="url(#er23a)"><path fill="none" stroke="#fff" stroke-linecap="round" stroke-linejoin="round" stroke-miterlimit="20" stroke-width="3.2" d="M106.48 90.905c0 23.169-19.333 6.871-42.981 6.871-23.648 0-43.142 16.298-43.142-6.87 0-23.17 19.334-41.864 43.142-41.864 23.807 0 42.981 18.695 42.981 41.863z"/></g><g clip-path="url(#er23a)"><path fill="none" stroke="#fff" stroke-linecap="round" stroke-linejoin="round" stroke-miterlimit="20" stroke-width="3.2" d="M57.747 18.843c0 9.108-5.433 16.618-12.304 16.618-6.87 0-12.303-7.35-12.303-16.618 0-9.267 5.433-16.617 12.303-16.617 6.871 0 12.304 7.35 12.304 16.617z"/></g><g clip-path="url(#er23a)"><path fill="none" stroke="#fff" stroke-linecap="round" stroke-linejoin="round" stroke-miterlimit="20" stroke-width="3.2" d="M26.11 38.177c0 9.108-5.433 16.617-12.304 16.617-6.87 0-12.303-7.51-12.303-16.617 0-9.108 5.433-16.617 12.303-16.617 6.871 0 12.304 7.51 12.304 16.617z"/></g><g clip-path="url(#er23a)"><path fill="none" stroke="#fff" stroke-linecap="round" stroke-linejoin="round" stroke-miterlimit="20" stroke-width="3.2" d="M69.251 18.843c0 9.108 5.433 16.618 12.303 16.618 6.87 0 12.304-7.35 12.304-16.618 0-9.267-5.593-16.617-12.304-16.617-6.71 0-12.303 7.35-12.303 16.617z"/></g><g clip-path="url(#er23a)"><path fill="none" stroke="#fff" stroke-linecap="round" stroke-linejoin="round" stroke-miterlimit="20" stroke-width="3.2" d="M100.728 38.177c0 9.108 5.433 16.618 12.303 16.618 6.871 0 12.304-7.35 12.304-16.618 0-9.267-5.593-16.617-12.304-16.617-6.71 0-12.303 7.51-12.303 16.617z"/></g></g></g></g></svg>