<svg xmlns="http://www.w3.org/2000/svg" width="30" height="30" viewBox="0 0 30 30"><defs><clipPath id="g1tga"><path d="M0 29.908V.526h29.709v29.382z"/></clipPath></defs><g><g><g/><g clip-path="url(#g1tga)"><path fill="#333" d="M2.314 2.853c.87-.857 2.021-1.42 3.16-1.42.735 0 1.127.38 1.53.783l.025.025h.025l.06.06c.437.42.846.866 1.226 1.336l.244.318c.772.992 1.286 1.641 1.997 2.915 1.077 1.91-.05 2.694-.858 3.27-.23.149-.447.316-.649.502-.147.148-.279.313-.392.49-.107.166-.19.348-.244.538-.209.735 0 1.69.404 2.645a12.123 12.123 0 0 0 1.91 3.11h.012l1.041 1.066.05.037.183.16.135.134c.298.265.613.51.943.735.416.294.869.575 1.175.747 3.625 2.02 4.188 1.298 5.033.196.218-.301.473-.573.76-.809 1.726-1.334 2.853-.587 4.445.478l.122.073h.013c.465.319.857.576 1.31.894l.808.613.417.318c.402.285.772.613 1.102.98.318.354.5.81.514 1.286 0 .771-.44 1.555-1.053 2.253a8.046 8.046 0 0 1-2.804 2.033c-1.225.49-1.556.343-2.4-.05l-.576-.256-3.037-1.335-.074-.037-.661-.33-.343-.184-.33-.184c-3.332-1.714-6.21-4.041-8.708-6.735-2.816-3.062-5.118-6.613-7.004-10.324a10.653 10.653 0 0 1-.625-1.47A5.572 5.572 0 0 1 .906 6c0-1.163.563-2.29 1.408-3.147zM1.03 9.588c1.91 3.784 4.274 7.397 7.151 10.52 2.56 2.78 5.523 5.155 8.952 6.931l.282.16.392.22.661.33.086.037h.012l3.037 1.396h.012l.551.245c1.103.502 1.543.71 3.111.074a9.013 9.013 0 0 0 3.147-2.266c.747-.845 1.274-1.837 1.274-2.853 0-.747-.306-1.36-.723-1.862a7.372 7.372 0 0 0-1.249-1.126l-.404-.319-.833-.637c-.477-.342-.87-.6-1.335-.918h-.012l-.122-.074c-1.91-1.285-3.245-2.18-5.499-.44-.348.28-.657.605-.918.967-.563.735-.943 1.212-3.882-.429-.294-.159-.71-.428-1.102-.698a8.253 8.253 0 0 1-.833-.649l-.11-.11a2.29 2.29 0 0 0-.245-.22l-1.004-1.029a11.132 11.132 0 0 1-1.752-2.853c-.33-.784-.502-1.543-.367-2.058.03-.103.076-.202.135-.294.077-.12.168-.23.27-.33a4.31 4.31 0 0 1 .526-.404c1.102-.772 2.596-1.825 1.126-4.446-.734-1.334-1.249-2.008-2.057-3.037l-.245-.318A15.148 15.148 0 0 0 7.764 1.69l-.11-.11C7.115 1.027 6.588.525 5.474.525c-1.396 0-2.78.674-3.796 1.69C.66 3.233 0 4.592 0 6c.014.676.134 1.346.355 1.984.184.551.41 1.087.674 1.604z"/></g></g></g></svg>