<svg xmlns="http://www.w3.org/2000/svg" width="36" height="28" viewBox="0 0 36 28"><defs><clipPath id="wyg7a"><path d="M.207 27.925V.664h35.44v27.26z"/></clipPath></defs><g><g><g/><g clip-path="url(#wyg7a)"><path fill="#333" d="M33.923 19.815a8.853 8.853 0 0 1-2.498 2.834.54.54 0 0 0-.22.526l.468 3.083-3.155-1.84a.54.54 0 0 0-.439-.045 12.9 12.9 0 0 1-1.986.468c-.687.106-1.38.16-2.075.16a13.118 13.118 0 0 1-4.645-.832 11.234 11.234 0 0 1-3.024-1.446c1.445-.201 2.856-.6 4.192-1.184l.059-.029.058-.03.073-.028.044-.03.088-.043h.044a13.703 13.703 0 0 0 3.111-2.016 10.985 10.985 0 0 0 2.922-3.857l.044-.117h.014l.044-.102v-.03l.044-.102h.015l.043-.116.088-.263.132-.41.102-.394v-2.176-.541a9.189 9.189 0 0 0-.6-2.761c2.031.526 3.8 1.505 5.114 2.805 1.315 1.3 2.337 3.301 2.337 5.288a6.968 6.968 0 0 1-.862 3.345zm-19.955 2.002c-.817-.001-1.633-.064-2.44-.19a15.178 15.178 0 0 1-2.337-.555.54.54 0 0 0-.438.044L4.91 23.38l.57-3.798a.54.54 0 0 0-.22-.526 10.445 10.445 0 0 1-2.95-3.33 8.239 8.239 0 0 1-1.023-3.96c0-2.746 1.402-5.244 3.666-7.055 2.265-1.812 5.479-2.966 9.014-2.966 3.535 0 6.72 1.14 9.013 2.98a10.24 10.24 0 0 1 2.717 3.243l.044.088v.029l.03.073.028.059v.043l.03.073h.014a8.18 8.18 0 0 1 .804 3.316V13.563c-.438 1.885-1.534 3.594-3.097 4.952a13.425 13.425 0 0 1-5.493 2.805l-.263.073h-.044l-.102.03h-.438c-.997.193-2.01.29-3.024.292zm19.02-11.292c-1.622-1.607-3.871-2.776-6.443-3.273a11.424 11.424 0 0 0-2.892-3.374C21.17 1.89 17.737.664 13.968.664c-3.77 0-7.202 1.227-9.686 3.214C1.8 5.865.207 8.684.207 11.78c.003 1.563.4 3.1 1.154 4.47a11.424 11.424 0 0 0 2.995 3.491l-.687 4.587a.54.54 0 0 0 .803.54l4.631-2.702c.742.225 1.499.396 2.265.512.86.134 1.73.203 2.6.204l.89-.029a11.979 11.979 0 0 0 3.93 2.396 14.2 14.2 0 0 0 5.026.905c.748 0 1.495-.06 2.235-.175a13.982 13.982 0 0 0 1.914-.438l3.93 2.293a.54.54 0 0 0 .803-.54l-.585-3.886a9.832 9.832 0 0 0 2.557-2.98 8.035 8.035 0 0 0 .993-3.857c0-2.293-.993-4.411-2.659-6.062z"/></g><g clip-path="url(#wyg7a)"><path fill="#333" d="M7.847 11.197a.95.95 0 1 0 0 1.899.95.95 0 0 0 0-1.9"/></g><g clip-path="url(#wyg7a)"><path fill="#333" d="M20.089 13.096a.95.95 0 1 0 0-1.9.95.95 0 0 0 0 1.9"/></g><g clip-path="url(#wyg7a)"><path fill="#333" d="M13.968 11.197a.95.95 0 1 0 0 1.899.95.95 0 0 0 0-1.9"/></g></g></g></svg>