<svg xmlns="http://www.w3.org/2000/svg" width="23" height="34" viewBox="0 0 23 34"><g><g><g><path fill="#fff" d="M22.217 32.882H.862v-1.768h21.355zM7.205 23.95H12.9v6.303H7.2zm-5.557-2.176h10.247v1.315H1.648zm12.962 1.148c.28-.09.585-.076.856.04l.023.012c.192.093.357.235.476.413l4.725 6.866h-6.93v-6.177c0-.655.437-1.028.85-1.154zm-2.514-8.45h-1.338v-9.11h1.63a1.75 1.75 0 1 0 1.04.04c.691.101 1.335.41 1.848.884 2.48 2.296 4.243 4.862 5.236 7.635.798 2.21 1.108 4.564.93 6.98a19.248 19.248 0 0 1-1.67 6.499l-3.095-4.495a2.113 2.113 0 0 0-.591-.58v-3.87a3.984 3.984 0 0 0-3.99-3.977zm-3.53 1.263H5.683v-.402h2.881zm2.112 1.44H3.571v-.58h7.107zm-2.704 2.423h-1.7v-1.561h1.7zM4.203 5.362h5.7v9.116h-5.7zM6.108 1.51h2.038V4.5H6.108zm7.63 5.545a.89.89 0 1 1-1.78 0 .89.89 0 0 1 1.78 0zm8.91 23.198h-.914l-1.4-2.038c.419-.804 1.687-3.525 1.969-7.21a17.69 17.69 0 0 0-.965-7.348c-1.039-2.91-2.882-5.597-5.47-7.997a4.334 4.334 0 0 0-2.957-1.154H9.007V1.08a.43.43 0 0 0-.43-.43h-2.9a.43.43 0 0 0-.43.43V4.5H3.772a.43.43 0 0 0-.43.431v9.977c0 .238.192.43.43.43h1.05v.403H3.142a.43.43 0 0 0-.431.43v1.441c0 .238.193.43.43.43h2.274v1.993c0 .237.193.43.43.43h2.56a.43.43 0 0 0 .431-.43v-1.998h2.273a.43.43 0 0 0 .431-.43v-1.442a.43.43 0 0 0-.43-.43H9.431v-.402h2.67a3.123 3.123 0 0 1 3.123 3.123v3.553a2.107 2.107 0 0 0-.867.086c-.522.156-.96.514-1.217.994h-.385v-1.746a.43.43 0 0 0-.43-.43H1.217a.43.43 0 0 0-.43.43v2.176c0 .238.193.43.43.43h5.127v6.304H.43a.43.43 0 0 0-.43.43v2.63c0 .237.192.43.43.43h22.216a.43.43 0 0 0 .43-.43v-2.63a.43.43 0 0 0-.43-.43z"/></g><g><path fill="#fff" d="M15.018 23.95a.207.207 0 1 1 0 .413.207.207 0 0 1 0-.413zm0 1.268a1.068 1.068 0 1 0 0-2.135 1.068 1.068 0 0 0 0 2.135z"/></g><g><path fill="#fff" d="M10.052 26.585a.758.758 0 1 1 .758-.758.758.758 0 0 1-.758.763zm0-2.377a1.619 1.619 0 1 0 0 3.238 1.619 1.619 0 0 0 0-3.238z"/></g></g></g></svg>