<svg xmlns="http://www.w3.org/2000/svg" width="33" height="35" viewBox="0 0 33 35"><g><g><g><path fill="#fff" d="M8.336 34.662c-.426-.001-.849-.07-1.253-.207-2.222-.743-2.766-3.84-1.596-9.207l1.012.22c-.585 2.684-1.24 7.287.915 8.01 3.826 1.273 8.663-6.049 10.914-10.583.908-1.817 2.47-6.414 3.516-10.956 1.218-5.291 1.424-9.104.571-10.466-.22-.358-.489-.51-.88-.51C19.221.992 16.2 3.91 13.028 9.18l-.88-.53c1.479-2.456 2.944-4.438 4.348-5.89C18.293.909 19.986-.04 21.52-.062h.028c.73 0 1.328.345 1.734.991.578.922.785 2.45.633 4.68-.124 1.816-.482 4.025-1.073 6.571-1.101 4.79-2.677 9.331-3.6 11.182-.68 1.377-2.538 4.872-4.995 7.673-2.12 2.415-4.101 3.627-5.911 3.627z"/></g><g><path fill="#fff" d="M9.334 34.517a.516.516 0 0 1-.138-1.011c.11-.028 11.334-3.083 13.13-3.654 2.085-.668 3.365-2.175 3.709-2.622 1.369-1.776 2.718-4.652 3.447-7.322.73-2.67-.482-4.865-.488-4.886l-.021-.034-6.49-13.398a.516.516 0 0 1 .93-.447l6.482 13.37c.151.262 1.418 2.615.585 5.663-.764 2.787-2.181 5.801-3.627 7.68-.392.51-1.844 2.216-4.218 2.973-1.816.578-12.71 3.544-13.17 3.667z"/></g><g><path fill="#fff" d="M26.11 30.168c-.619 0-1.183-.186-1.713-.42a.516.516 0 1 1 .42-.942c1.025.454 2.009.701 3.681-.93 1.672-1.63 2.994-5.738 2.994-7.555 0-.344-.757-1.576-1.645-2.69a.516.516 0 0 1 .805-.647c.44.55 1.872 2.408 1.872 3.337 0 2.016-1.315 6.351-3.303 8.299-1.205 1.163-2.216 1.548-3.11 1.548z"/></g><g><path fill="#fff" d="M16.394 27.787c-.262-.014-6.413-.289-8.65-.832-2.236-.544-4.583-3.888-6.276-6.317l-.316-.455C.539 19.31.34 18.566.553 17.906c.324-1.026 1.507-1.46 2.553-1.838l.344-.124c.324-.123.668-.213 1.032-.316 1.404-.385 2.994-.819 3.964-3.097.736-1.74 1.41-2.71 2.319-3.35 1.032-.723 2.319-.971 3.93-1.123 3.454-.316 7.823 1.322 8.01 1.39l-.366.964c-.04-.014-4.335-1.624-7.548-1.328-1.741.158-2.698.42-3.434.936-.737.516-1.308 1.362-1.961 2.91-1.163 2.74-3.173 3.29-4.638 3.689-.338.09-.661.179-.936.282l-.358.13c-.819.297-1.755.64-1.927 1.177-.103.324.055.785.461 1.37l.317.454c1.507 2.168 3.791 5.443 5.677 5.904 2.14.523 8.388.805 8.45.805z"/></g></g></g></svg>