<svg xmlns="http://www.w3.org/2000/svg" width="31" height="32" viewBox="0 0 31 32"><g><g><g><path fill="#fff" d="M9.754 21.263a7.956 7.956 0 0 1-7.95-7.89 8.923 8.923 0 0 0 5.937 4.665l.054.013.18.04.106.02.233.04.16.027.114.013.186.02h.087l.273.027h.067l.22.013h12.4l.207-.013h.08l.267-.02h.073l.193-.027.114-.013.146-.02.533-.107.054-.013a8.923 8.923 0 0 0 5.884-4.538 7.963 7.963 0 0 1-7.95 7.763zm19.198-9.296l-.1.274-.027.066-.066.16a7.983 7.983 0 0 1-5.298 4.551h-.033l-.174.04-.193.04-.126.027-.154.027-.1.013-.246.033h-.08l-.233.02h-.047l-.273.014H9.44l-.274-.014h-.046l-.233-.02h-.08l-.247-.033h-.093l-.154-.027-.126-.026-.193-.04-.174-.04h-.033a7.983 7.983 0 0 1-5.304-4.558l-.067-.153-.027-.067-.1-.267v-.013a7.936 7.936 0 0 1 7.497-5.33h11.668a7.936 7.936 0 0 1 7.503 5.317zM9.787 1.372h11.668a7.956 7.956 0 0 1 7.883 8.983 8.93 8.93 0 0 0-7.883-4.712H9.787a8.93 8.93 0 0 0-7.883 4.712 7.956 7.956 0 0 1 7.883-8.983zm20.617 7.95c0-4.931-4.011-8.95-8.949-8.95H9.787c-4.931 0-8.95 4.019-8.95 8.95 0 .52.045 1.04.134 1.552l-.166 2.44c0 4.937 4.018 8.949 8.949 8.949h11.668c4.938 0 8.95-4.018 8.95-8.95v-3.218c.02-.26.032-.513.032-.773z"/></g><g><g><path fill="#fff" d="M15.884 20.65v3.379"/></g><g><path fill="#fff" d="M15.884 24.408c-.273 0-.5-.173-.5-.38V20.65c0-.213.227-.38.5-.38.274 0 .5.174.5.38v3.379c0 .213-.226.38-.5.38z"/></g></g><g><g/><g><path fill="#fff" d="M16.144 24.908a3.039 3.039 0 0 1 3.039 3.046 3.039 3.039 0 1 1-3.039-3.04zm4.038 3.039a4.038 4.038 0 1 0-8.076 0 4.038 4.038 0 0 0 8.076 0z"/></g></g><g><g><path fill="#fff" d="M12.82 27.947h6.63"/></g><g><path fill="#fff" d="M19.45 28.447h-6.63a.5.5 0 0 1 0-1h6.636a.5.5 0 1 1 0 1z"/></g></g><g><g><path fill="#fff" d="M15.884 29.22v2.265"/></g><g><path fill="#fff" d="M15.884 31.985a.5.5 0 0 1-.5-.5V29.22a.5.5 0 0 1 1 0v2.265a.5.5 0 0 1-.5.5z"/></g></g></g></g></svg>