<svg xmlns="http://www.w3.org/2000/svg" width="59" height="42" viewBox="0 0 59 42"><g><g><path fill="#a79075" d="M23.232 29.668v-17.37l15.266 8.685zM57.19 6.832a7.34 7.34 0 0 0-5.165-5.197C47.471.406 29.206.406 29.206.406S10.94.406 6.385 1.635A7.34 7.34 0 0 0 1.22 6.832C0 11.417 0 20.982 0 20.982s0 9.567 1.22 14.151c.672 2.53 2.652 4.439 5.165 5.115 4.555 1.229 22.82 1.229 22.82 1.229s18.266 0 22.821-1.229c2.514-.676 4.493-2.585 5.165-5.115 1.22-4.584 1.22-14.15 1.22-14.15s0-9.566-1.22-14.15z"/></g></g></svg>