<svg xmlns="http://www.w3.org/2000/svg" width="35" height="29" viewBox="0 0 35 29"><g><g><g><path fill="#fff" d="M17.216 14.095h-.006zm-.003 0c5.88.001 10.66 4.652 10.67 10.364 0 1.281-.235 2.09-.718 2.467-.775.606-2.31.236-4.253-.236-1.685-.41-3.6-.877-5.69-.877-2.09 0-4.006.467-5.691.877-1.944.472-3.478.842-4.253.236-.483-.382-.72-1.186-.72-2.467 0-5.712 4.78-10.363 10.655-10.364zM8.43 28.083c.92 0 2.028-.27 3.286-.573 1.646-.399 3.505-.854 5.494-.854 1.989 0 3.854.455 5.494.854 2.163.522 3.877.938 4.972.079.708-.562 1.04-1.55 1.04-3.13 0-6.18-5.163-11.207-11.506-11.207-6.342 0-11.5 5.028-11.5 11.207 0 1.573.332 2.568 1.04 3.13.46.36 1.022.494 1.68.494z"/><path fill="none" stroke="#fff" stroke-miterlimit="20" stroke-width=".25" d="M17.216 14.095h-.006zm-.003 0c5.88.001 10.66 4.652 10.67 10.364 0 1.281-.235 2.09-.718 2.467-.775.606-2.31.236-4.253-.236-1.685-.41-3.6-.877-5.69-.877-2.09 0-4.006.467-5.691.877-1.944.472-3.478.842-4.253.236-.483-.382-.72-1.186-.72-2.467 0-5.712 4.78-10.363 10.655-10.364zM8.43 28.083c.92 0 2.028-.27 3.286-.573 1.646-.399 3.505-.854 5.494-.854 1.989 0 3.854.455 5.494.854 2.163.522 3.877.938 4.972.079.708-.562 1.04-1.55 1.04-3.13 0-6.18-5.163-11.207-11.506-11.207-6.342 0-11.5 5.028-11.5 11.207 0 1.573.332 2.568 1.04 3.13.46.36 1.022.494 1.68.494z"/></g><g><path fill="#fff" d="M15.317 5.882c0 2.112-1.236 3.836-2.753 3.836-1.516 0-2.752-1.724-2.752-3.836 0-2.113 1.236-3.837 2.752-3.837 1.517 0 2.753 1.724 2.753 3.837zm-.174 3.263c.651-.876 1.011-2.033 1.011-3.263s-.331-2.354-1.011-3.264c-.68-.91-1.596-1.416-2.579-1.416-.983 0-1.927.545-2.578 1.421-.652.877-1.011 2.034-1.011 3.264s.331 2.354 1.01 3.264c.68.91 1.596 1.416 2.58 1.416.982 0 1.926-.545 2.578-1.422z"/><path fill="none" stroke="#fff" stroke-miterlimit="20" stroke-width=".25" d="M15.317 5.882c0 2.112-1.236 3.836-2.753 3.836-1.516 0-2.752-1.724-2.752-3.836 0-2.113 1.236-3.837 2.752-3.837 1.517 0 2.753 1.724 2.753 3.837zm-.174 3.263c.651-.876 1.011-2.033 1.011-3.263s-.331-2.354-1.011-3.264c-.68-.91-1.596-1.416-2.579-1.416-.983 0-1.927.545-2.578 1.421-.652.877-1.011 2.034-1.011 3.264s.331 2.354 1.01 3.264c.68.91 1.596 1.416 2.58 1.416.982 0 1.926-.545 2.578-1.422z"/></g><g><path fill="#fff" d="M7.183 10.881c0 2.113-1.236 3.837-2.753 3.837-1.517 0-2.753-1.724-2.753-3.837 0-2.112 1.236-3.837 2.753-3.837 1.511 0 2.752 1.725 2.752 3.837zm-.175 3.264c.652-.876 1.012-2.033 1.012-3.264 0-1.23-.332-2.353-1.012-3.264-.68-.91-1.59-1.415-2.578-1.415-.989 0-1.933.54-2.584 1.415-.652.877-1.012 2.034-1.012 3.264s.338 2.354 1.017 3.264c.68.91 1.596 1.416 2.579 1.416.983 0 1.927-.54 2.578-1.416z"/><path fill="none" stroke="#fff" stroke-miterlimit="20" stroke-width=".25" d="M7.183 10.881c0 2.113-1.236 3.837-2.753 3.837-1.517 0-2.753-1.724-2.753-3.837 0-2.112 1.236-3.837 2.753-3.837 1.511 0 2.752 1.725 2.752 3.837zm-.175 3.264c.652-.876 1.012-2.033 1.012-3.264 0-1.23-.332-2.353-1.012-3.264-.68-.91-1.59-1.415-2.578-1.415-.989 0-1.933.54-2.584 1.415-.652.877-1.012 2.034-1.012 3.264s.338 2.354 1.017 3.264c.68.91 1.596 1.416 2.579 1.416.983 0 1.927-.54 2.578-1.416z"/></g><g><path fill="#fff" d="M24.614 5.882c0 2.112-1.236 3.836-2.752 3.836-1.517 0-2.753-1.724-2.753-3.836 0-2.113 1.236-3.837 2.753-3.837 1.517 0 2.752 1.724 2.752 3.837zm-.174 3.263c.652-.876 1.011-2.033 1.011-3.263s-.331-2.354-1.01-3.264c-.68-.91-1.596-1.416-2.58-1.416-.982 0-1.926.545-2.578 1.421-.651.877-1.011 2.034-1.011 3.264s.331 2.354 1.011 3.264c.68.91 1.596 1.416 2.579 1.416.983 0 1.927-.545 2.578-1.422z"/><path fill="none" stroke="#fff" stroke-miterlimit="20" stroke-width=".25" d="M24.614 5.882c0 2.112-1.236 3.836-2.752 3.836-1.517 0-2.753-1.724-2.753-3.836 0-2.113 1.236-3.837 2.753-3.837 1.517 0 2.752 1.724 2.752 3.837zm-.174 3.263c.652-.876 1.011-2.033 1.011-3.263s-.331-2.354-1.01-3.264c-.68-.91-1.596-1.416-2.58-1.416-.982 0-1.926.545-2.578 1.421-.651.877-1.011 2.034-1.011 3.264s.331 2.354 1.011 3.264c.68.91 1.596 1.416 2.579 1.416.983 0 1.927-.545 2.578-1.422z"/></g><g><path fill="#fff" d="M29.996 7.044c1.517 0 2.753 1.72 2.753 3.832s-1.236 3.837-2.753 3.837c-1.517 0-2.752-1.725-2.752-3.837 0-2.113 1.235-3.837 2.752-3.837zm2.579 7.101c.651-.876 1.01-2.033 1.01-3.264 0-1.23-.33-2.353-1.01-3.264-.68-.91-1.596-1.415-2.579-1.415-.983 0-1.927.54-2.578 1.415-.652.877-1.012 2.034-1.012 3.264s.332 2.354 1.012 3.264c.68.91 1.595 1.416 2.578 1.416.983 0 1.927-.54 2.579-1.416z"/><path fill="none" stroke="#fff" stroke-miterlimit="20" stroke-width=".25" d="M29.996 7.044c1.517 0 2.753 1.72 2.753 3.832s-1.236 3.837-2.753 3.837c-1.517 0-2.752-1.725-2.752-3.837 0-2.113 1.235-3.837 2.752-3.837zm2.579 7.101c.651-.876 1.01-2.033 1.01-3.264 0-1.23-.33-2.353-1.01-3.264-.68-.91-1.596-1.415-2.579-1.415-.983 0-1.927.54-2.578 1.415-.652.877-1.012 2.034-1.012 3.264s.332 2.354 1.012 3.264c.68.91 1.595 1.416 2.578 1.416.983 0 1.927-.54 2.579-1.416z"/></g></g></g></svg>