<svg xmlns="http://www.w3.org/2000/svg" width="24" height="34" viewBox="0 0 24 34"><g><g><g><path fill="#fff" d="M6.758 22.117a3.387 3.387 0 0 1-3.38-3.38V7.954h6.76V18.73a3.387 3.387 0 0 1-3.38 3.387zM2.308 3.83a.867.867 0 0 0-.866.866V7.08c0 .473.38.859.853.867V18.73a4.47 4.47 0 0 0 2.925 4.189.636.636 0 0 0-.058.267c0 .455.505.838 1.206.968a8.985 8.985 0 0 1-.52 2.86c-.845 2.333-2.586 3.864-5.179 4.543a.542.542 0 0 0 .138 1.069l.137-.015c3.705-.975 5.272-3.401 5.937-5.258.362-1.026.554-2.104.57-3.192.686-.137 1.178-.513 1.178-.96a.657.657 0 0 0-.109-.354 4.47 4.47 0 0 0 2.701-4.103V7.932a.867.867 0 0 0 .701-.852V4.696a.867.867 0 0 0-.867-.866z"/></g><g><path fill="#fff" d="M18.617 22.984a3.387 3.387 0 0 1-3.38-3.38V4.978h6.76v14.626a3.387 3.387 0 0 1-3.38 3.38zM22.994.86h-8.746a.867.867 0 0 0-.867.867v2.383a.867.867 0 0 0 .773.86v14.633a4.47 4.47 0 0 0 2.925 4.189.635.635 0 0 0-.058.267c0 .455.506.838 1.206.968a8.986 8.986 0 0 1-.52 2.86c-.845 2.326-2.585 3.857-5.178 4.543a.542.542 0 0 0 .137 1.069l.137-.015c3.705-.975 5.273-3.401 5.937-5.258.362-1.026.555-2.104.57-3.192.687-.137 1.178-.513 1.178-.96a.657.657 0 0 0-.108-.354 4.47 4.47 0 0 0 2.7-4.103V4.978a.867.867 0 0 0 .78-.867V1.728a.867.867 0 0 0-.866-.867z"/></g></g></g></svg>