<svg xmlns="http://www.w3.org/2000/svg" width="32" height="31" viewBox="0 0 32 31"><g><g><g><path fill="#fff" d="M30.814 21.27c-.165.061-.334.11-.506.144-.374.086-.663.184-.873.723-.092.223-1.097.971-2.358 1.03-1.116.053-2.029-.676-2.311-1.214-.282-.539-.44-1.195-.42-1.964a.493.493 0 0 0-.985-.02c-.016.494.037.986.157 1.465a2.692 2.692 0 0 0-.722.105l-.342.112c-.407.144-.834.295-1.214.203a1.024 1.024 0 0 1-.381-.19c-.263-.184-.624-.434-1.333-.19l-.361.137c-.42.171-.611.25-1.826-.098-2.18-.63-4.826 1.49-5.122 1.733-.46.381-.775 1.235-1.175 2.325-.493 1.34-1.104 3-2.056 3.77-.072.058-.269.019-.499-.106-1.668-.86-3.71-4.262-4.898-7.059A32.925 32.925 0 0 1 1.02 7.966c1.135.029 2.27-.07 3.382-.296 1.792-.36 3.894-.991 4.656-1.234.25.33.543.623.873.873 1.766 1.327 3.447 1.366 4.8 1.392.377.003.754.025 1.13.066h.065a.492.492 0 0 0 .066-.978c-.41-.046-.822-.07-1.235-.073-1.274-.026-2.718-.059-4.229-1.195-1.51-1.136-1.825-3.579-1.871-4.465.696-.217 2.403-.657 3.855-.29 1.45.369 2.18 2.22 2.613 3.429.072.203.145.394.21.558.558 1.385 2.397 1.642 2.476 1.648a.493.493 0 1 0 .125-.978c-.014 0-1.347-.19-1.688-1.044-.06-.145-.125-.322-.197-.526l-.092-.243c.581-.11 1.17-.18 1.76-.21h.144l.119-.085c.006 0 .433-.309.663-.466h.013l.02-.014-.027.02c.053-.013.217-.033.5.125l.288.164.834-.643c.453.696.952.709 1.228.643l.046-.013a3.31 3.31 0 0 1 .434-.079c0 .013.006.033.006.06.04.597.171.787.407 1.076.101.122.196.249.283.381.19.289.177.328.144.466a1.983 1.983 0 0 0-.065.329c-.046.407.295.742.978 1.411.552.539 1.3 1.28 1.438 1.767.112.387.112.716.118 1.064.007.518.013 1.11.4 1.845.592 1.142 2.082 3.296 3.153 4.21 1.07.912 2.01 2.146 2.173 2.915.164.768.184 1.543-.203 1.694zM16.748 3.494c-.386.042-.77.103-1.15.184-.281-.637-.65-1.307-1.161-1.852.57.092 1.175.282 1.635.65.327.26.563.616.676 1.018zm15.228 15.858c-.263-1.208-1.51-2.613-2.495-3.46-.985-.847-2.37-2.87-2.916-3.914-.276-.532-.282-.913-.289-1.405-.006-.381-.013-.808-.157-1.32-.21-.736-.998-1.51-1.695-2.2-.236-.236-.551-.545-.67-.703l.02-.072c.092-.341.132-.65-.269-1.267a5.234 5.234 0 0 0-.341-.46c-.151-.19-.171-.21-.19-.519-.02-.308-.158-.637-.382-.807-.374-.276-.827-.171-1.267-.073h-.026c-.046-.026-.164-.13-.302-.4a.722.722 0 0 0-1.084-.243l-.571.446c-.67-.256-1.116-.013-1.169.02h-.013l-.44.302a2.968 2.968 0 0 0-1.038-1.582C15.297.605 13.136.743 12.657.789c-2.154-.506-4.577.413-4.682.453l-.309.118v.328c0 .712.08 1.42.237 2.115.134.61.344 1.2.624 1.76-.893.275-2.745.82-4.308 1.129-2.082.427-3.599.27-3.612.263l-.518-.06-.033.52a33.897 33.897 0 0 0 2.62 15.142c1.556 3.67 3.71 6.704 5.352 7.551.335.171.623.237.86.237.257.004.508-.082.709-.243 1.162-.94 1.826-2.745 2.357-4.196.29-.795.624-1.694.874-1.904.92-.762 2.85-1.944 4.222-1.544 1.478.427 1.865.316 2.476.066l.315-.118c.236-.079.263-.066.447.065.214.163.46.279.722.342.663.158 1.274-.06 1.766-.236l.302-.099c.283-.085.65-.066.834-.04.48.874 1.662 1.721 3.054 1.721h.17a5.004 5.004 0 0 0 2.03-.565c.295-.15.998-.564 1.201-1.096l.04-.092.131-.033c.217-.047.43-.11.637-.19 1.083-.414 1.03-1.767.801-2.83z"/></g><g><path fill="#fff" d="M14.05 15.491a.492.492 0 1 0-.789-.59c-.072.098-1.727 2.37.834 5.686a.494.494 0 0 0 .782-.604c-2.075-2.686-.887-4.413-.828-4.492z"/></g><g><path fill="#fff" d="M29.803 20.259c-.933-.02-1.025-.546-1.031-.71h-.985c0 .02.02 1.649 1.996 1.688h.006a.493.493 0 0 0 .007-.985z"/></g><g><path fill="#fff" d="M21.43 10.546a.676.676 0 1 0 0 1.353.676.676 0 0 0 0-1.352z"/></g><g><path fill="#fff" d="M21.955 6.193l-.236.02a1.74 1.74 0 0 1-.315.02c-.02-.02-.105-.119-.263-.526-.157-.407-.276-.637-.604-.742-.328-.105-.578.066-.749.184-.17.118-.302.19-.499.177-.551-.046-.683-.223-.702-.256a.493.493 0 1 0-.959.23c.02.092.217.9 1.583 1.004a1.59 1.59 0 0 0 1.004-.262c.178.473.355.827.663 1.018.172.105.37.158.572.15.12-.002.241-.01.36-.026l.218-.02a.494.494 0 0 0-.08-.984z"/></g></g></g></svg>