<svg xmlns="http://www.w3.org/2000/svg" width="33" height="35" viewBox="0 0 33 35"><g><g><g><path fill="#fff" d="M19.386 10.631a.765.765 0 1 0 0 1.53.765.765 0 0 0 0-1.53z"/></g><g><path fill="#fff" d="M31.929 14.336c-.206.492-.552 1.07-.984 1.622a7.748 7.748 0 0 0-.606.938c-.432.752-.711 1.244-1.988 1.556l-.432.107c-3.046.731-5.62 1.41-6.285 2.3l-.12.167c-.32.426-.619.825-.692 1.37-.073.545.12 1.19.632 2.002.412.652.679 1.65.712 2.667.012.302-.001.605-.04.904-2.454-1.802-5.88-3.305-10.216-4.469a53.836 53.836 0 0 0-5.998-1.27c.006-.053.013-.1.02-.146.073-.898.685-3.904 1.077-5.121.153-.486.718-1.397 1.257-2.275.958-1.55 1.536-2.54 1.563-3.172.033-.845 1.217-3.272 1.722-3.818.353-.385.473-1.084.619-1.962.146-.878.292-1.736.638-2.188.346-.452.639-.997.905-1.496.173-.32.412-.765.578-.991.207.326.473 1.064.566 1.337l.073.213c-.153.226-.306.465-.466.711-.16.246-.365.579-.532.805-.705.95-1.09 3.132-1.13 3.378a.5.5 0 0 0 .984.167c.1-.606.472-2.308.951-2.953.186-.253.386-.566.572-.865.186-.3.326-.512.512-.778a.499.499 0 0 0 .146-.2c.075-.099.158-.192.246-.279.167.539.293 1.87.353 2.56.106 1.165.166 1.63.293 1.876.212.4.791.599 1.981.978.799.253 1.796.572 2.175.898.193.166.406.439.645.765.758.997 1.796 2.367 3.91 2.553 2.86.253 6.046.938 6.518 1.297.04.067.047.32-.16.812zM17.29 33.796a44.347 44.347 0 0 1-5.826-.879c-4.855-1.05-8.387-2.64-9.803-4.382.858-.931 1.842-1.896 2.115-2.002a.831.831 0 0 0 .326-.193c2.097.297 4.173.724 6.218 1.277 4.27 1.15 7.721 2.687 10.016 4.456-.153.632-.246 1.243-.246 1.702-.32.074-1.15.147-2.8.02zM5.546 23.592c2.03.3 4.043.717 6.025 1.25 4.217 1.131 7.629 2.64 9.923 4.383-.26.36-.505.872-.718 1.437-2.441-1.77-5.84-3.246-10.116-4.396a54.519 54.519 0 0 0-5.72-1.21c.074-.154.154-.32.233-.506.08-.186.253-.619.373-.958zm27.387-10.64c-.12-.187-.366-.566-2.926-1.091a41.614 41.614 0 0 0-4.33-.639c-1.676-.146-2.52-1.264-3.199-2.161-.279-.366-.518-.685-.791-.918-.532-.452-1.543-.778-2.52-1.09-.513-.167-1.211-.387-1.417-.526-.06-.226-.127-.911-.18-1.477-.226-2.44-.392-3.438-1.09-3.551-.287-.047-.54.053-.785.24-.373-.972-.719-1.697-1.284-1.783-.565-.087-1.064.658-1.583 1.616-.26.486-.525.984-.811 1.357-.499.651-.678 1.702-.838 2.633-.093.546-.22 1.29-.373 1.457-.578.632-1.935 3.285-1.981 4.45-.02.418-.858 1.788-1.417 2.693-.559.904-1.164 1.895-1.357 2.494-.399 1.237-1.037 4.283-1.124 5.353-.08.965-1.104 3.306-1.496 3.592-.659.252-2.162 1.875-2.787 2.574l-.252.279.212.32c1.856 2.799 7.316 4.375 10.409 5.06 2.873.639 5.952 1.018 7.887 1.018.745 0 1.324-.06 1.656-.18.559-.2.559-.612.546-.731-.113-1.044.751-3.798 1.363-4.33 1.004-.878.918-4.057-.166-5.766-.765-1.204-.532-1.503.013-2.235l.126-.173c.094-.12.486-.465 2.195-.997 1.144-.36 2.46-.672 3.518-.931l.433-.107c1.696-.412 2.168-1.23 2.62-2.028.155-.285.331-.558.525-.818.46-.572 1.882-2.56 1.204-3.605z"/></g><g><path fill="#fff" d="M30.792 13.684c-.237.006-.471.053-.692.14-.519.206-.825.625-.851 1.157a.499.499 0 0 0 .479.518h.02a.499.499 0 0 0 .498-.478c.014-.32.492-.34.552-.34a.499.499 0 0 0 0-.997z"/></g></g></g></svg>